<svg xmlns="http://www.w3.org/2000/svg" version="1.1" viewBox="-5.0 -10.0 110.0 135.0">
 <path d="m58.176 24.738-24.32 24.324c-0.38281 0.38281-0.66406 0.86328-0.80469 1.3867l-5.0352 18.465c-0.29688 1.082 0.011719 2.2383 0.80469 3.0312 0.59375 0.59375 1.3906 0.91406 2.2109 0.91406 0.27344 0 0.55078-0.035156 0.82422-0.10938l18.465-5.0352c0.52344-0.14453 1-0.42188 1.3867-0.80469l39.355-39.359c3.5781-3.582 3.5781-9.4062 0-12.988l-4.8633-4.8633c-3.5859-3.5781-9.4141-3.5781-12.988 0l-15.035 15.035v0.003906zm23.605-10.617 4.8633 4.8633c1.1445 1.1445 1.1406 3.0039 0 4.1484l-4.2617 4.2578-9.0117-9.0117 4.2578-4.2578c1.1445-1.1406 3.0039-1.1406 4.1523 0zm-12.828 8.6797 9.0117 9.0117-4.1484 4.1484-9.0078-9.0117zm0.44141 17.578-21.527 21.523-12.387 3.3789 3.3789-12.387 21.527-21.527z"/>
 <path d="m15.434 92.988h59.672c5.0625 0 9.1836-4.1211 9.1836-9.1836l-0.003906-37.922c0-1.7266-1.3984-3.125-3.125-3.125-1.7266 0-3.125 1.3984-3.125 3.125v37.922c0 1.6172-1.3164 2.9336-2.9336 2.9336h-59.668c-1.6445 0-2.9336-1.2891-2.9336-2.9336v-59.672c0-1.6172 1.3164-2.9336 2.9336-2.9336h40.953c1.7266 0 3.125-1.3984 3.125-3.125 0-1.7266-1.3984-3.125-3.125-3.125h-40.953c-5.0625 0-9.1836 4.1211-9.1836 9.1836v59.672c0 5.0625 4.1211 9.1836 9.1836 9.1836z"/>
</svg>