<svg xmlns="http://www.w3.org/2000/svg" version="1.1" viewBox="-5.0 -10.0 110.0 135.0">
 <path fill='white' d="m95.809 53.465h-21.266v39.32h25.445v-35.141c-0.007812-2.3047-1.875-4.1719-4.1797-4.1797zm-4.6055 30.73h-7.8398v-7.8281h7.8398zm0-14.309-7.8398-0.003907v-7.7656h7.8398z"/>
 <path fill='white' d="m0 57.656v35.141h25.445v-39.332h-21.242c-1.1133-0.003906-2.1836 0.4375-2.9727 1.2227-0.78906 0.78906-1.2305 1.8555-1.2305 2.9688zm8.8086 4.4609h7.8281v7.8281h-7.8281zm0 14.309h7.8281v7.8281h-7.8281z"/>
 <path fill='white' d="m66.969 29.68h-1.6719c-2.0156 3.668-5.2852 6.4922-9.207 7.9492-3.9258 1.4609-8.2422 1.4609-12.168 0-3.9219-1.457-7.1914-4.2812-9.207-7.9492h-1.6133c-1.1133-0.003907-2.1836 0.4375-2.9727 1.2227-0.78516 0.78906-1.2305 1.8555-1.2305 2.9688v58.914h14.688v-17.57h12.844v17.57h14.684v-58.914c0-2.2969-1.8477-4.1641-4.1445-4.1914zm-21.422 38h-7.8281v-7.8281h7.8281zm0-14.297-7.8281-0.003906v-7.8242h7.8281zm16.746 14.297h-7.8281v-7.8281h7.8281zm0-14.297-7.8281-0.003906v-7.8242h7.8281z"/>
 <path fill='white' d="m50.008 35.289c5.6797 0.007813 10.805-3.4141 12.98-8.6602 2.1797-5.2461 0.98047-11.289-3.0352-15.309-4.0156-4.0195-10.059-5.2227-15.305-3.0508-5.25 2.1758-8.6719 7.2969-8.6719 12.977 0 7.75 6.2773 14.039 14.031 14.043zm-8.4844-15.41c0-0.73828 0.59766-1.3359 1.332-1.3359h4.4844v-4.4922c0.007812-0.73828 0.60547-1.3359 1.3438-1.3359h2.7383c0.73828 0 1.3398 0.59766 1.3477 1.3359v4.4453h4.4844-0.003906c0.73828 0 1.3398 0.59375 1.3477 1.332v2.75c-0.007812 0.73828-0.60938 1.3359-1.3477 1.3359h-4.4844v4.4961l0.003906-0.003906c-0.007812 0.73828-0.60938 1.3359-1.3477 1.3359h-2.7852c-0.73828 0-1.3398-0.59766-1.3438-1.3359v-4.4453h-4.4844c-0.73438 0-1.332-0.59766-1.332-1.332z"/>
</svg>