<svg xmlns="http://www.w3.org/2000/svg" version="1.1" viewBox="-5.0 -10.0 110.0 135.0">
 <path d="m3.5 25.98h22.629v5.3594h-22.629z"/>
 <path d="m26.129 34.539h-16.75v55.539h6.7695v-6.418h10zm-3.6016 30.75h-9.5273v-3.2109h9.5508zm0-9.4492h-9.5273v-3.1992h9.5508zm0-9.4414h-9.5273v-3.207h9.5508z"/>
 <path d="m39.5 62.18h8.8906v21.488h-8.8906z"/>
 <path d="m51.602 62.18h8.8906v21.488h-8.8906z"/>
 <path d="m63.699 62.18v21.48h7v-70.082h-41.359v70.082h7v-21.48h-3.1016v-3.1797h33.523v3.2109zm-2.5703-27.84h-7.918v7.9414h-6.4219v-7.9414h-7.918v-6.4102h7.9219l-0.003907-7.9297h6.4219v7.9297h7.9219z"/>
 <path d="m22.781 3.5h54.43v6.8711h-54.43z"/>
 <path d="m19.352 86.871h61.289v3.2109h-61.289z"/>
 <path d="m90.621 90.078v-55.539h-16.75v49.121h10v6.4219zm-13.152-46.887h9.5312v3.207h-9.5312zm0 9.4492h9.5312v3.1992h-9.5312zm0 12.648v-3.2109h9.5312v3.2109z"/>
 <path d="m73.871 25.98h22.629v5.3594h-22.629z"/>
 <path d="m3.5 93.281h93v3.2188h-93z"/>
<text x="0.0" y="117.5" font-size="5.0" font-weight="bold" font-family="Arbeit Regular, Helvetica, Arial-Unicode, Arial, Sans-serif" fill="#000000">Created by Denicon</text><text x="0.0" y="122.5" font-size="5.0" font-weight="bold" font-family="Arbeit Regular, Helvetica, Arial-Unicode, Arial, Sans-serif" fill="#000000">from Noun Project</text></svg>