<svg xmlns="http://www.w3.org/2000/svg" xmlns:xlink="http://www.w3.org/1999/xlink" version="1.1" x="0px" y="0px" viewBox="0 0 100 125" style="enable-background:new 0 0 100 100;" xml:space="preserve"><g><rect x="29.05" y="11" width="9.19" height="16.19"/><rect x="61.76" y="11" width="9.19" height="16.19"/><polygon points="64.1,87.72 83.02,68.81 64.1,68.81  "/><path fill='#008080' d="M72.75,28.1c0,0.5-0.4,0.9-0.9,0.9H60.86c-0.5,0-0.9-0.4-0.9-0.9V20.4H40.04v7.69c0,0.5-0.4,0.9-0.9,0.9H28.15   c-0.5,0-0.9-0.4-0.9-0.9V20.4H15.7v12.43h50.65c0.5,0,0.9,0.41,0.9,0.9c0,0.5-0.4,0.9-0.9,0.9H15.7V89h46.6V77.02H34.76   c-1.78,0-3.24-1.37-3.42-3.12H62.3v-0.65H35.79v-6.68c0.9,1.55,2.65,2.61,4.63,2.61c2.27,0,4.22-1.35,4.95-3.24   c0.74,1.89,2.68,3.24,4.95,3.24c2.29,0,4.22-1.35,4.97-3.24c0.74,1.89,2.67,3.24,4.95,3.24c0.72,0,1.42-0.14,2.05-0.4v-0.72   c-0.61,0.31-1.32,0.47-2.05,0.47c-2.56,0-4.63-1.93-4.63-4.29c0-0.18-0.16-0.32-0.32-0.32c-0.18,0-0.32,0.14-0.32,0.32   c0,2.36-2.09,4.29-4.65,4.29c-2.56,0-4.63-1.93-4.63-4.29c0-0.18-0.14-0.32-0.32-0.32c-0.18,0-0.32,0.14-0.32,0.32   c0,2.36-2.07,4.29-4.63,4.29c-2.38,0-4.4-1.71-4.59-3.89c0.14-1.93,1.77-3.46,3.73-3.46h21.56c1.96,0,3.57,1.53,3.73,3.46   c-0.09,0.9-0.49,1.71-1.06,2.36h0.79h0.29H84.3V20.4H72.75V28.1z M54,43.3c0.43,0.68,0.9,1.55,0.9,1.87c0,0.36-0.22,0.67-0.54,0.81   c0.07-0.07,0.13-0.18,0.13-0.32c0-0.16-0.25-0.63-0.49-0.99c-0.22,0.36-0.47,0.83-0.47,0.99c0,0.14,0.05,0.25,0.13,0.32   c-0.32-0.14-0.54-0.45-0.54-0.81C53.12,44.85,53.57,43.98,54,43.3z M54.72,46.72v4.74H53.3v-4.74H54.72z M49.82,43.3   c0.41,0.68,0.88,1.55,0.88,1.87c0,0.36-0.22,0.67-0.54,0.81c0.07-0.07,0.13-0.18,0.13-0.32c0-0.16-0.25-0.63-0.47-0.99   c-0.23,0.36-0.49,0.83-0.49,0.99c0,0.14,0.05,0.25,0.13,0.32c-0.31-0.14-0.54-0.45-0.54-0.81C48.92,44.85,49.37,43.98,49.82,43.3z    M50.52,46.72v4.74H49.1v-4.74H50.52z M45.62,43.3c0.41,0.68,0.88,1.55,0.88,1.87c0,0.36-0.22,0.67-0.54,0.81   c0.07-0.07,0.13-0.18,0.13-0.32c0-0.16-0.23-0.63-0.47-0.99c-0.23,0.36-0.49,0.83-0.49,0.99c0,0.14,0.05,0.25,0.14,0.32   c-0.32-0.14-0.54-0.45-0.54-0.81C44.74,44.85,45.19,43.98,45.62,43.3z M46.33,46.72v4.74h-1.41v-4.74H46.33z M43.82,52.14h13.02   c1.75,0,3.22,1.21,3.62,2.83c-0.38,1.3-1.62,2.2-3.08,2.2c-1.77,0-3.21-1.31-3.21-2.95c0-0.18-0.14-0.32-0.31-0.32   c-0.18,0-0.32,0.14-0.32,0.32c0,1.64-1.46,2.95-3.22,2.95s-3.21-1.31-3.21-2.95c0-0.18-0.14-0.32-0.32-0.32   c-0.16,0-0.32,0.14-0.32,0.32c0,1.64-1.42,2.95-3.19,2.95c-1.44,0-2.72-0.9-3.08-2.2C40.6,53.35,42.07,52.14,43.82,52.14z    M60.59,60.56H40.06V56.2c0.7,0.99,1.89,1.62,3.22,1.62c1.57,0,2.92-0.88,3.51-2.16c0.59,1.28,1.95,2.16,3.53,2.16   c1.57,0,2.94-0.88,3.55-2.16c0.58,1.28,1.93,2.16,3.51,2.16c1.33,0,2.5-0.61,3.21-1.64V60.56z"/></g></svg>