<svg xmlns="http://www.w3.org/2000/svg" version="1.1" viewBox="-5.0 -10.0 110.0 135.0">
 <g>
  <path fill='#008080' d="m47.039 70.621c3.9102-0.66016 7.4609-2.6914 10.031-5.7188 0.12891-0.16016 0.26172-0.32031 0.37891-0.48828l0.26953-0.35156c0.078125-0.10156 0.16016-0.19922 0.23828-0.30859 0.039063-0.050781 0.070313-0.10938 0.10156-0.16016l0.058594-0.10156c1.8984-2.8008 2.9102-6.0703 2.9102-9.4609 0-0.53125-0.03125-1.0781-0.10156-1.7383-0.21094-2.0312-0.76953-3.9688-1.6719-5.7812-1.0898-2.1719-2.6094-4.0508-4.5117-5.5781-2.6094-2.1016-5.7617-3.3594-9.1211-3.6484-0.48047-0.039062-0.94922-0.058594-1.4297-0.058594h-0.12109c-2.3711 0.019532-4.6914 0.53906-6.8789 1.5508-1.0898 0.5-2.1016 1.1016-3 1.7617-0.10938 0.089844-0.17188 0.23828-0.12891 0.37891 0.070312 0.30078 0.17188 0.58984 0.26953 0.87891 0.16016 0.46875 0.32031 0.87109 0.5 1.2305 0.28125 0.57812 0.64062 1.1602 1.1211 1.7812 0.03125 0.039062 0.058594 0.078125 0.070313 0.10156 0.058593 0.089844 0.14844 0.14844 0.26172 0.16016 0.10156 0.011719 0.21094-0.019531 0.28906-0.078124 0.53125-0.44922 1.1016-0.85156 1.6914-1.1992 1.7695-1.0312 3.8086-1.5781 5.9492-1.5898 2.1094 0 4.1914 0.57031 6.0117 1.6406 0.92188 0.53906 1.75 1.1914 2.4609 1.9102 0.60938 0.62109 1.1484 1.3086 1.6406 2.0898l0.32031-0.19141-0.26953 0.28125c0.75 1.2383 1.25 2.5898 1.5 4.0195 0.089844 0.51953 0.14844 1.0703 0.17188 1.6914v0.17188c0.011719 0.078125 0.019531 0.16016 0.019531 0.23047 0 6.4102-5.0312 11.609-11.441 11.82h-0.17969c-0.070313 0.019531-0.14062 0.019531-0.21875 0.019531-5.9102 0-10.949-4.4219-11.73-10.281-0.078125-0.58984-0.12109-1.0898-0.12109-1.5586 0-0.35156 0.019532-0.71875 0.078125-1.1992l0.03125-0.30859c0.019531-0.12109-0.03125-0.25-0.12891-0.32812-1.3008-1.1289-2.4297-2.4102-3.3789-3.8398-0.078125-0.10938-0.21875-0.16016-0.35156-0.12891-0.12891 0.019531-0.23828 0.12109-0.28906 0.23828-0.57031 1.6289-0.89062 3.3594-0.92969 5.1289v0.17188c-0.011718 0.089844-0.019531 0.17969-0.019531 0.26953 0 8.2305 5.8789 15.199 13.98 16.578l0.57031 0.10156v6.4219h-7.9297c-0.10156 0-0.19141 0.039062-0.26172 0.10938-0.070312 0.070312-0.10938 0.16016-0.10938 0.26172v3.8008c0 0.21094 0.17188 0.37109 0.37109 0.37109h7.9297v7.9492c0 0.21094 0.17188 0.37109 0.37109 0.37109h3.8008c0.21094 0 0.37109-0.17188 0.37109-0.37109v-7.9492h7.9492c0.10156 0 0.19141-0.039062 0.26172-0.10937 0.070313-0.070313 0.10938-0.16016 0.10938-0.26172v-3.8008c0-0.21094-0.17188-0.37109-0.37109-0.37109h-7.9414v-6.4219l0.57031-0.10156z"/>
  <path fill='#008080' d="m68.301 25.359h3.9492c0.21094 0 0.37109-0.17188 0.37109-0.37109v-14.609c0-0.21094-0.17188-0.37109-0.37109-0.37109h-14.629c-0.21094 0-0.37109 0.17188-0.37109 0.37109v3.9492c0 0.21094 0.17188 0.37109 0.37109 0.37109h7.0703l-10.32 10.32-0.46875-0.32812c-2.4414-1.7305-5.3086-2.7812-8.3008-3.0195l-0.10937-0.011719c-0.37891-0.03125-0.76953-0.039062-1.2109-0.050781h-0.10156c-0.050782 0-0.089844 0-0.21875 0.011719-8.5508 0.10938-15.66 6.6016-16.52 15.102-0.058594 0.55859-0.089844 1.1406-0.089844 1.7188 0 0.48828 0.03125 1.0117 0.089844 1.6719 0.19922 2.0508 0.76172 4.0117 1.6719 5.8281 0.12891 0.26172 0.28125 0.51172 0.42969 0.76172l0.12891 0.21094c1.0508 1.8008 2.4219 3.3984 3.9609 4.6406 1.1719 0.94141 2.5 1.7383 3.9414 2.3516 1.4883 0.64062 3.0703 1.0586 4.6992 1.2383 0.73047 0.078125 1.3398 0.12109 1.9102 0.12109 3.5703 0 7.1211-1.1797 10.012-3.3203 0.12109-0.089843 0.17969-0.23828 0.14063-0.39062-0.26172-1.0898-0.69922-2.1289-1.3086-3.0898-0.21094-0.32031-0.42969-0.64062-0.66016-0.92969 0 0-0.078126-0.078125-0.14063-0.10938-0.12891-0.058593-0.28906-0.039062-0.39844 0.050781-0.51953 0.44922-1.0898 0.85156-1.6797 1.1914-1.7891 1.0508-3.8203 1.5781-6.0117 1.6016h-0.089844c-2.1211-0.03125-4.1992-0.62109-6-1.7188-0.87109-0.53125-1.6484-1.1484-2.3203-1.8281-0.64844-0.66016-1.2188-1.3984-1.6992-2.2109-0.73828-1.2383-1.2383-2.5781-1.4883-3.9883-0.12891-0.71094-0.19141-1.3906-0.19141-2.0898 0-0.46094 0.039063-0.94922 0.10938-1.5312 0.76953-5.8789 5.8086-10.309 11.73-10.309 0.070312 0 0.14062 0 0.21094 0.011719h0.19141c6.4219 0.23047 11.441 5.4219 11.441 11.828v0.21875c-0.019531 0.42188-0.050781 0.85156-0.10938 1.3008-0.019531 0.12109 0.03125 0.25 0.12891 0.32812 0.82031 0.71094 1.5898 1.5117 2.3008 2.3711 0.42969 0.53125 0.76172 0.98047 1.0781 1.4492 0.078124 0.10156 0.21875 0.16016 0.35156 0.12891 0.12891-0.019531 0.23828-0.12109 0.28906-0.23828 0.62891-1.7812 0.94922-3.6484 0.94922-5.5586 0-3.4883-1.0703-6.8516-3.0898-9.7188l-0.32813-0.46875 10.328-10.328v7.0781c0 0.21094 0.17187 0.37109 0.37109 0.37109z"/>
 </g>
</svg>