<svg xmlns="http://www.w3.org/2000/svg" xmlns:xlink="http://www.w3.org/1999/xlink" version="1.1" x="0px" y="0px" viewBox="0 0 100 125" style="enable-background:new 0 0 100 100;" xml:space="preserve"><g><path fill='white' d="M54.5,29.4H23.01c-3.16,0-5.72,2.57-5.72,5.72v31.49c0,3.16,2.57,5.72,5.72,5.72H54.5c3.16,0,5.72-2.57,5.72-5.72V35.13   C60.22,31.97,57.66,29.4,54.5,29.4z"/><path fill='white' d="M78.13,32.81c-1.12-0.56-2.44-0.45-3.44,0.3l-9.91,7.35c-1.03,0.77-1.65,1.99-1.65,3.28v14.56c0,1.29,0.62,2.51,1.65,3.28   l9.91,7.35c0.58,0.43,1.27,0.65,1.96,0.65c0.5,0,1.01-0.12,1.48-0.35c1.12-0.56,1.81-1.69,1.81-2.94V35.75   C79.95,34.5,79.25,33.37,78.13,32.81z"/></g></svg>