<svg xmlns="http://www.w3.org/2000/svg" version="1.1" viewBox="-5.0 -10.0 110.0 135.0" >
 <path d="m84.477 41.691c-0.71484-2.1953-2.5781-3.7383-4.8672-4.0234l-16.996-2.1367-7.2852-15.504c-0.98047-2.0898-3.0234-3.3867-5.332-3.3867s-4.3516 1.2969-5.332 3.3867l-7.2852 15.504-16.992 2.1367c-2.2891 0.28516-4.1562 1.8281-4.8672 4.0234-0.71484 2.1953-0.10938 4.5391 1.5703 6.1172l12.492 11.719-3.2188 16.824c-0.43359 2.2656 0.45703 4.5156 2.3242 5.8711 1.8672 1.3555 4.2812 1.5078 6.3047 0.39453l15.004-8.2617 15.004 8.2617c0.89844 0.49609 1.875 0.73828 2.8477 0.73828 1.2148 0 2.418-0.38281 3.4531-1.1328 1.8672-1.3555 2.7578-3.6055 2.3242-5.8711l-3.2188-16.824 12.492-11.719c1.6836-1.5781 2.2852-3.9219 1.5703-6.1172zm-19.297 14.637c-0.73828 0.69141-1.0703 1.7188-0.88281 2.7109l3.5156 18.379-16.391-9.0234c-0.88672-0.48828-1.9648-0.48828-2.8516 0l-16.391 9.0234 3.5156-18.379c0.19141-0.99609-0.14062-2.0195-0.88281-2.7109l-13.648-12.801 18.562-2.3359c1.0039-0.125 1.875-0.75781 2.3086-1.6758l7.957-16.934 7.957 16.934c0.42969 0.91797 1.3008 1.5508 2.3086 1.6758l18.562 2.3359-13.648 12.801z"/>
</svg>