<svg xmlns="http://www.w3.org/2000/svg" version="1.1" viewBox="-5.0 -10.0 110.0 135.0">
 <path d="m91.668 41.668h-7.8359c-0.92578 0-1.7383-0.61328-2-1.5-0.60938-1.9766-1.4023-3.8867-2.375-5.7109-0.44141-0.80078-0.30469-1.8008 0.33594-2.457l5.543-5.543h-0.003907c1.6172-1.625 1.6172-4.25 0-5.875l-5.875-5.957c-1.625-1.6172-4.25-1.6172-5.875 0l-5.5391 5.543c-0.65625 0.64062-1.6562 0.77344-2.4609 0.33203-1.8203-0.96875-3.7344-1.7656-5.707-2.375-0.89062-0.23828-1.5195-1.0352-1.543-1.957v-7.8359c0-1.1055-0.4375-2.1641-1.2188-2.9453s-1.8398-1.2188-2.9453-1.2188h-8.3359c-2.3008 0-4.1641 1.8633-4.1641 4.1641v7.8359c0 0.92578-0.61328 1.7383-1.5 2-1.9766 0.60938-3.8867 1.4023-5.7109 2.375-0.80078 0.44141-1.8008 0.30469-2.457-0.33594l-5.582-5.582c-1.625-1.6172-4.25-1.6172-5.875 0l-5.918 5.918c-1.6172 1.625-1.6172 4.25 0 5.875l5.543 5.5391c0.64062 0.65625 0.77344 1.6562 0.33203 2.4609-0.96875 1.8203-1.7656 3.7344-2.375 5.707-0.25781 0.89062-1.0742 1.5-2 1.5h-7.793c-2.3008 0-4.1641 1.8672-4.1641 4.168v8.332c0 1.1055 0.4375 2.1641 1.2188 2.9453s1.8398 1.2227 2.9453 1.2227h7.8359c0.92578 0 1.7383 0.60938 2 1.5 0.60938 1.9727 1.4023 3.8828 2.375 5.707 0.44141 0.80469 0.30469 1.8008-0.33594 2.457l-5.582 5.625c-1.6172 1.625-1.6172 4.25 0 5.875l5.918 5.918c1.625 1.6172 4.25 1.6172 5.875 0l5.543-5.543h-0.003907c0.65625-0.64062 1.6562-0.77344 2.4609-0.33203 1.8203 0.96875 3.7344 1.7656 5.707 2.375 0.89062 0.25781 1.5 1.0742 1.5 2v7.793c0 1.1055 0.4375 2.1641 1.2188 2.9453s1.8438 1.2188 2.9492 1.2188h8.332c1.1055 0 2.1641-0.4375 2.9453-1.2188s1.2227-1.8398 1.2227-2.9453v-7.8359c0-0.92578 0.60938-1.7383 1.5-2 1.9727-0.60938 3.8828-1.4023 5.707-2.375 0.80469-0.44141 1.8008-0.30469 2.457 0.33594l5.543 5.543v-0.003907c1.625 1.6172 4.25 1.6172 5.875 0l5.918-5.918v0.003907c1.6133-1.625 1.6133-4.25 0-5.875l-5.543-5.543c-0.64062-0.65625-0.77734-1.6562-0.33203-2.457 0.96875-1.8242 1.7656-3.7344 2.375-5.7109 0.25781-0.88672 1.0742-1.5 2-1.5h7.875c1.1055 0 2.1641-0.4375 2.9453-1.2188s1.2188-1.8398 1.2188-2.9453v-8.3359c0-1.1055-0.4375-2.1641-1.2188-2.9453s-1.8398-1.2188-2.9453-1.2188zm-25 8.332c-0.011719 1.4102-0.21094 2.8086-0.58594 4.168-0.35156 1.4609-0.91016 2.8633-1.6641 4.1641-1.4492 2.5352-3.5508 4.6367-6.0859 6.0859-1.3008 0.75-2.7031 1.3125-4.1641 1.6641-2.8086 0.77734-5.7773 0.77734-8.5859 0-1.4609-0.35156-2.8633-0.91016-4.1641-1.6641-2.4414-1.4844-4.4531-3.582-5.8359-6.0859-0.75391-1.3008-1.3125-2.7031-1.6641-4.1641-0.77734-2.8086-0.77734-5.7773 0-8.5859 0.35156-1.4609 0.91406-2.8633 1.6641-4.1641 1.4844-2.4414 3.582-4.4531 6.0859-5.8359 1.3008-0.75391 2.7031-1.3125 4.1641-1.6641 2.8086-0.77734 5.7773-0.77734 8.5859 0 1.4609 0.35156 2.8633 0.91016 4.1641 1.6641 2.4414 1.4844 4.4531 3.582 5.8359 6.0859 0.75391 1.3008 1.3125 2.7031 1.6641 4.1641 0.375 1.3594 0.57422 2.7578 0.58594 4.168z"/>
</svg>